<?xml version="1.0" encoding="UTF-8"?>
<svg xmlns="http://www.w3.org/2000/svg" xmlns:xlink="http://www.w3.org/1999/xlink" viewBox="0 0 256 137.05">
  <defs>
    <style>
      .cls-1 {
        clip-path: url(#clippath-20);
      }

      .cls-2 {
        clip-path: url(#clippath-11);
      }

      .cls-3 {
        clip-path: url(#clippath-16);
      }

      .cls-4 {
        fill: #fff;
      }

      .cls-5 {
        fill: #c15e27;
      }

      .cls-6 {
        fill: #08df00;
      }

      .cls-7 {
        clip-path: url(#clippath-2);
      }

      .cls-8 {
        clip-path: url(#clippath-13);
      }

      .cls-9 {
        fill: #ffa18a;
      }

      .cls-10 {
        clip-path: url(#clippath-15);
      }

      .cls-11 {
        clip-path: url(#clippath-6);
      }

      .cls-12 {
        fill: #846549;
      }

      .cls-13 {
        clip-path: url(#clippath-7);
      }

      .cls-14 {
        clip-path: url(#clippath-21);
      }

      .cls-15 {
        clip-path: url(#clippath-1);
      }

      .cls-16 {
        clip-path: url(#clippath-4);
      }

      .cls-17 {
        fill: #fff1e9;
      }

      .cls-18 {
        fill: #e07661;
      }

      .cls-19 {
        clip-path: url(#clippath-12);
      }

      .cls-20 {
        fill: #e8ded9;
      }

      .cls-21 {
        fill: #16a80e;
      }

      .cls-22 {
        clip-path: url(#clippath-22);
      }

      .cls-23 {
        clip-path: url(#clippath-9);
      }

      .cls-24 {
        clip-path: url(#clippath);
      }

      .cls-25 {
        fill: none;
      }

      .cls-26 {
        clip-path: url(#clippath-19);
      }

      .cls-27 {
        clip-path: url(#clippath-3);
      }

      .cls-28 {
        fill: #e1b282;
      }

      .cls-29 {
        clip-path: url(#clippath-8);
      }

      .cls-30 {
        fill: #ff7d2a;
      }

      .cls-31 {
        clip-path: url(#clippath-18);
      }

      .cls-32 {
        clip-path: url(#clippath-14);
      }

      .cls-33 {
        clip-path: url(#clippath-17);
      }

      .cls-34 {
        clip-path: url(#clippath-5);
      }

      .cls-35 {
        clip-path: url(#clippath-10);
      }

      .cls-36 {
        fill: #ffd9aa;
      }
    </style>
    <clipPath id="clippath">
      <path id="original" class="cls-25" d="m188.49,99.31c-1.18-1.33-2.27-2.74-3.34-4.16-.46-.62-.92-1.24-1.38-1.86-.26-.35-.51-.69-.77-1.03-.11-.15-.48-.62-.16-.21-1.15-1.47-1.65-3.14-1.27-4.74-.14-.75-.12-1.5.08-2.25.1-.24.2-.48.3-.72,0-1.61-.1-4.85-.6-9.02-.7-5.81-7.32-10.35-6.37-10.87.95-.53,2.43-2.96,3.06-7.39.63-4.43-.95-6.55-2.74-10.98-.93-2.29-5.05-4.01-8.84-5.15,2.24,2.86.99,8.28-3.75,8.28-5.75,0-6.36-7.94-1.86-9.67-.73-.15-1.18-.22-1.18-.22,0,0-1.16-1.79-4.01-4.65-2.85-2.85-8.34-4.64-9.61-5.91s.21-3.17,1.37-4.54,2.74.63,4.75,2.32,5.07,4.12,5.6,5.7,13.72,8.97,13.72,8.97c1.06,1.48,6.65,2.53,8.55.32s2.11-4.01-2.01-4.65c-4.12-.63-10.24-10.24-12.03-12.88-1.79-2.64-3.48-6.44-3.59-6.76-.11-.32-4.22-7.92-8.66-10.45-4.43-2.53-6.76-.11-11.19.21-4.43.32-4.65-.95-5.81-1.27-1.16-.32-3.38-.53-5.49-.53s-4.12,4.12-5.28,5.28-5.07,7.81-5.7,11.08c-.63,3.27,0,8.55,0,8.55,0,0-1.79-.74-7.28,1.27-3.11,1.14-12.26,7.73-13.92,9.58-2.35,1.75-4.69,3.54-6.96,5.39-2.22,4.08-4.74,8.04-7.55,11.76.22,1.82.22,3.67,0,5.49l.56.38s1.58,3.08,2.85,8.04c.13.51.32.99.55,1.44.15-.01.31-.03.46-.04.29-.02.59-.04.89-.03.03,0,.06,0,.08,0,1.54-.31,3.02.09,4.15.98,1.07-.12,2.22.09,3.11.62,1.22.73,2.35,1.51,3.45,2.41,1.01.83,1.41,2.29,1.46,3.54.06,1.33-.59,2.58-1.46,3.54-.84.92-2.31,1.46-3.54,1.46-.69.03-1.33-.12-1.93-.43-.48-.16-.89-.42-1.27-.75-.57-.4-1.16-.77-1.76-1.13-.21-.12-.39-.27-.57-.42-.37.06-.74.1-1.11.13-.26.89-.61,1.73-1.04,2.69.36-.82.13-.28-.05.23.07.21.15.42.23.62.52,1.38.18,2.79-.6,3.93,0,.22,0,.44.01.66,0,0,0,0,0,0,.7,1.39.69,3.01.03,4.42,3.96,8.52,11.61,20.91,12.32,22.24.95,1.79,6.12,5.28,8.02,5.91,1.66.55,3.71-1.86,5.19-4.17.22-.34.42-.68.62-1.01,1.48-2.53,8.66-3.91,10.35-3.27,1.69.63,2.43,1.58,11.08,2.22,8.66.63,10.45-1.16,10.45-1.16,0,0,0,2.85.53,6.33.53,3.48,4.65,3.38,8.87,2.74,4.22-.63,15.1-9.18,15.1-9.18l1.79.21,1.08.45c1.86-1.13,3.76-2.73,5.06-3.61,2.77-1.87,5.64-3.49,8.48-5.25.36-.22.69-.46,1.04-.7.18-.49.33-1,.47-1.55.45-1.85.76-3.73,1.09-5.59-.81-.22-1.56-.62-2.12-1.24Z"/>
    </clipPath>
    <clipPath id="clippath-1">
      <path id="original-2" data-name="original" class="cls-25" d="m188.49,99.31c-1.18-1.33-2.27-2.74-3.34-4.16-.46-.62-.92-1.24-1.38-1.86-.26-.35-.51-.69-.77-1.03-.11-.15-.48-.62-.16-.21-1.15-1.47-1.65-3.14-1.27-4.74-.14-.75-.12-1.5.08-2.25.1-.24.2-.48.3-.72,0-1.61-.1-4.85-.6-9.02-.7-5.81-7.32-10.35-6.37-10.87.95-.53,2.43-2.96,3.06-7.39.63-4.43-.95-6.55-2.74-10.98-.93-2.29-5.05-4.01-8.84-5.15,2.24,2.86.99,8.28-3.75,8.28-5.75,0-6.36-7.94-1.86-9.67-.73-.15-1.18-.22-1.18-.22,0,0-1.16-1.79-4.01-4.65-2.85-2.85-8.34-4.64-9.61-5.91s.21-3.17,1.37-4.54,2.74.63,4.75,2.32,5.07,4.12,5.6,5.7,13.72,8.97,13.72,8.97c1.06,1.48,6.65,2.53,8.55.32s2.11-4.01-2.01-4.65c-4.12-.63-10.24-10.24-12.03-12.88-1.79-2.64-3.48-6.44-3.59-6.76-.11-.32-4.22-7.92-8.66-10.45-4.43-2.53-6.76-.11-11.19.21-4.43.32-4.65-.95-5.81-1.27-1.16-.32-3.38-.53-5.49-.53s-4.12,4.12-5.28,5.28-5.07,7.81-5.7,11.08c-.63,3.27,0,8.55,0,8.55,0,0-1.79-.74-7.28,1.27-3.11,1.14-12.26,7.73-13.92,9.58-2.35,1.75-4.69,3.54-6.96,5.39-2.22,4.08-4.74,8.04-7.55,11.76.22,1.82.22,3.67,0,5.49l.56.38s1.58,3.08,2.85,8.04c.13.51.32.99.55,1.44.15-.01.31-.03.46-.04.29-.02.59-.04.89-.03.03,0,.06,0,.08,0,1.54-.31,3.02.09,4.15.98,1.07-.12,2.22.09,3.11.62,1.22.73,2.35,1.51,3.45,2.41,1.01.83,1.41,2.29,1.46,3.54.06,1.33-.59,2.58-1.46,3.54-.84.92-2.31,1.46-3.54,1.46-.69.03-1.33-.12-1.93-.43-.48-.16-.89-.42-1.27-.75-.57-.4-1.16-.77-1.76-1.13-.21-.12-.39-.27-.57-.42-.37.06-.74.1-1.11.13-.26.89-.61,1.73-1.04,2.69.36-.82.13-.28-.05.23.07.21.15.42.23.62.52,1.38.18,2.79-.6,3.93,0,.22,0,.44.01.66,0,0,0,0,0,0,.7,1.39.69,3.01.03,4.42,3.96,8.52,11.61,20.91,12.32,22.24.95,1.79,6.12,5.28,8.02,5.91,1.66.55,3.71-1.86,5.19-4.17.22-.34.42-.68.62-1.01,1.48-2.53,8.66-3.91,10.35-3.27,1.69.63,2.43,1.58,11.08,2.22,8.66.63,10.45-1.16,10.45-1.16,0,0,0,2.85.53,6.33.53,3.48,4.65,3.38,8.87,2.74,4.22-.63,15.1-9.18,15.1-9.18l1.79.21,1.08.45c1.86-1.13,3.76-2.73,5.06-3.61,2.77-1.87,5.64-3.49,8.48-5.25.36-.22.69-.46,1.04-.7.18-.49.33-1,.47-1.55.45-1.85.76-3.73,1.09-5.59-.81-.22-1.56-.62-2.12-1.24Z"/>
    </clipPath>
    <clipPath id="clippath-2">
      <path id="original-3" data-name="original" class="cls-25" d="m188.49,99.31c-1.18-1.33-2.27-2.74-3.34-4.16-.46-.62-.92-1.24-1.38-1.86-.26-.35-.51-.69-.77-1.03-.11-.15-.48-.62-.16-.21-1.15-1.47-1.65-3.14-1.27-4.74-.14-.75-.12-1.5.08-2.25.1-.24.2-.48.3-.72,0-1.61-.1-4.85-.6-9.02-.7-5.81-7.32-10.35-6.37-10.87.95-.53,2.43-2.96,3.06-7.39.63-4.43-.95-6.55-2.74-10.98-.93-2.29-5.05-4.01-8.84-5.15,2.24,2.86.99,8.28-3.75,8.28-5.75,0-6.36-7.94-1.86-9.67-.73-.15-1.18-.22-1.18-.22,0,0-1.16-1.79-4.01-4.65-2.85-2.85-8.34-4.64-9.61-5.91s.21-3.17,1.37-4.54,2.74.63,4.75,2.32,5.07,4.12,5.6,5.7,13.72,8.97,13.72,8.97c1.06,1.48,6.65,2.53,8.55.32s2.11-4.01-2.01-4.65c-4.12-.63-10.24-10.24-12.03-12.88-1.79-2.64-3.48-6.44-3.59-6.76-.11-.32-4.22-7.92-8.66-10.45-4.43-2.53-6.76-.11-11.19.21-4.43.32-4.65-.95-5.81-1.27-1.16-.32-3.38-.53-5.49-.53s-4.12,4.12-5.28,5.28-5.07,7.81-5.7,11.08c-.63,3.27,0,8.55,0,8.55,0,0-1.79-.74-7.28,1.27-3.11,1.14-12.26,7.73-13.92,9.58-2.35,1.75-4.69,3.54-6.96,5.39-2.22,4.08-4.74,8.04-7.55,11.76.22,1.82.22,3.67,0,5.49l.56.38s1.58,3.08,2.85,8.04c.13.51.32.99.55,1.44.15-.01.31-.03.46-.04.29-.02.59-.04.89-.03.03,0,.06,0,.08,0,1.54-.31,3.02.09,4.15.98,1.07-.12,2.22.09,3.11.62,1.22.73,2.35,1.51,3.45,2.41,1.01.83,1.41,2.29,1.46,3.54.06,1.33-.59,2.58-1.46,3.54-.84.92-2.31,1.46-3.54,1.46-.69.03-1.33-.12-1.93-.43-.48-.16-.89-.42-1.27-.75-.57-.4-1.16-.77-1.76-1.13-.21-.12-.39-.27-.57-.42-.37.06-.74.1-1.11.13-.26.89-.61,1.73-1.04,2.69.36-.82.13-.28-.05.23.07.21.15.42.23.62.52,1.38.18,2.79-.6,3.93,0,.22,0,.44.01.66,0,0,0,0,0,0,.7,1.39.69,3.01.03,4.42,3.96,8.52,11.61,20.91,12.32,22.24.95,1.79,6.12,5.28,8.02,5.91,1.66.55,3.71-1.86,5.19-4.17.22-.34.42-.68.62-1.01,1.48-2.53,8.66-3.91,10.35-3.27,1.69.63,2.43,1.58,11.08,2.22,8.66.63,10.45-1.16,10.45-1.16,0,0,0,2.85.53,6.33.53,3.48,4.65,3.38,8.87,2.74,4.22-.63,15.1-9.18,15.1-9.18l1.79.21,1.08.45c1.86-1.13,3.76-2.73,5.06-3.61,2.77-1.87,5.64-3.49,8.48-5.25.36-.22.69-.46,1.04-.7.18-.49.33-1,.47-1.55.45-1.85.76-3.73,1.09-5.59-.81-.22-1.56-.62-2.12-1.24Z"/>
    </clipPath>
    <clipPath id="clippath-3">
      <path id="eyelid-2" data-name="eyelid" class="cls-25" d="m143.12,59.1s-7.98-8.82-7.06-13.22,1.46-5.67,4.76-6.65,6.98-.35,9.36,1.47,3.61,3.57,3.61,3.57c0,0-1.15-.35-4.3,3.64s-4.99,5.25-4.99,8.19.08,4.06.08,4.06l-1.46-1.05Z"/>
    </clipPath>
    <clipPath id="clippath-4">
      <path id="cheeks-3" data-name="cheeks" class="cls-25" d="m135.99,62.22s3.91-2.38,5.91-1.84,2.3.88,2.3.88c0,0-2.3-6.94,3.38-12.55s13.74-10.28,14.51-10.67,3.99-.46,3.99-.46c0,0-1.77.08-3.38,1.77s-1.92,2.84-1.92,2.84c0,0,4.99-2.3,7.67-1.53s8.29,5.37,8.29,5.37l-4.3.15s4.99.61,6.75,2.76,1.3,1.92,1.3,1.92c0,0,.61-.54-2.53-1.3s3.45.92,4.3,3.91-.61.15-3.99-.38,2.07.61,2.61,4.68-4.45,7.9-4.45,7.9c0,0-4.53-2.3-6.98-.84s-6.37,2.61-8.52,4.84-4.68,5.45-5.37,4.76-19.57-11.59-19.57-11.59"/>
    </clipPath>
    <clipPath id="clippath-5">
      <path class="cls-6" d="m82.57,62.87c1.12.03,2.24.2,3.36.36.25.03.49.05.74.05.32,0,1.43-.21.32.02,2.55-.52,4.89.6,5.92,2.94l8.27-11.74-24.55-20.27-10.66,19.64,14.89,9.3c.55-.21,1.13-.33,1.72-.31Z"/>
    </clipPath>
    <clipPath id="clippath-6">
      <path class="cls-25" d="m95.01,49.93l-3.63-4.84,1.82,5.52s-1.95-1.88-3.97-2.76c-2.02-.87-4.71,0-4.71,0,0,0,3.5.34,5.25,2.22s2.42,3.36,2.42,3.36c0,0,0,1.21-3.09-.81-3.09-2.02-4.57-3.18-4.57-3.18l2.69,4.35,3.09,1.79c-4.98-1.48-4.17,0-4.17,0l2.96,1.48s2.96,3.36-.81,1.21c-3.77-2.15-5.92-4.57-5.92-4.57l.94,2.42,3.5,2.87s3.36.59.67,0c-2.69-.59-6.05-1.39-6.05-1.39l3.63,2.29.67,2.96s-4.17.12-4.37-1.42.02,2.57.02,2.57l3.95.36s-.19,7.07,4.21,10.67,69.12,33.97,69.12,33.97c0,0,14.68,8.1,18.28,9.28,3.6,1.19,17.63,5.1,24.7,6.72,7.07,1.62,17.7,0,17.7,0,0,0,8.22,4.15,11.71,4.15s-3.9-2.93-3.9-2.93l-5.11-1.48s6.29-.79,7.64-.53c1.35.26,6.61,2.23,6.61,2.23,0,0,1.9-1.17-3.62-3.32-5.52-2.15-9.15-.54-9.15-.54l13.08-3.09-13.22,1.75-2.29-.13s-3.36-9.28-7.27-13.72c-3.9-4.44-18.05-13.88-18.05-13.88,0,0-80.44-42.37-80.98-42.5s-7.27-4.98-12.65-4.17c-5.38.81-7.13,3.09-7.13,3.09Z"/>
    </clipPath>
    <clipPath id="clippath-7">
      <path class="cls-25" d="m96.87,42.43s-8.16-3.16-9.48-3.06-4.49,5.1-4.69,6.32-4.59,21.01-7.24,29.88-7.95,22.46-10.1,22.09-5.91,3.09-5.81-6.69,1.12-21.31,2.14-24.98,3.37-23.45,4.59-27.74,2.14-6.22,5.3-6.42,4.79,1.02,7.85-1.22,4.22-3.47,7.51-1.84,24.61,11.73,24.61,11.73l-5.61,4.6-9.08-2.66Z"/>
    </clipPath>
    <clipPath id="clippath-8">
      <path class="cls-25" d="m132.78,5.22s-6.12,6.49-7.03,11.81c-.91,5.32-1.49,11.3-1.49,11.3,4.12-1.64,8.13-1.7,12.04-.3,0,0,.3-6.93,1.31-9.84,1-2.91,5.61-8.5,5.61-8.5l5.96-3.93s-6.58.45-8.82.18c-1.87-.23-7.57-.7-7.57-.7Z"/>
    </clipPath>
    <clipPath id="clippath-9">
      <path class="cls-25" d="m96.87,42.43s-8.16-3.16-9.48-3.06-4.49,5.1-4.69,6.32-4.59,21.01-7.24,29.88-7.95,22.46-10.1,22.09-5.91,3.09-5.81-6.69,1.12-21.31,2.14-24.98,3.37-23.45,4.59-27.74,2.14-6.22,5.3-6.42,4.79,1.02,7.85-1.22,4.22-3.47,7.51-1.84,24.61,11.73,24.61,11.73l-5.61,4.6-9.08-2.66Z"/>
    </clipPath>
    <clipPath id="clippath-10">
      <path id="arm-2" data-name="arm" class="cls-25" d="m153.33,76.11l7.37-6.76s6.75-4.44,9.67-4.75,7.21-.23,7.9,6.6.15,8.84-1.53,10.64-19.81,6.39-21.26,6.25-4.3.77-4.3.77l-1.53-9.44,3.68-3.3Z"/>
    </clipPath>
    <clipPath id="clippath-11">
      <path class="cls-25" d="m152.19,75.91l-2.4-2.86s-3.09-1.26-4.12,0,1.03,5.03,1.71,5.37-6.75-.34-6.75.91-.46,2.14.46,3.24,3.77,1.33,3.77,1.33c0,0-4-.46-3.66,1.14s1.14,3.32,2.74,3.2,3.2-.46,3.2-.46c0,0-4.46.8-3.32,1.83s3.2,2.17,5.14,1.14,4.8-2.06,5.03-2.4-1.03-6.4-1.14-8.57-.69-3.89-.69-3.89Z"/>
    </clipPath>
    <clipPath id="clippath-12">
      <path class="cls-25" d="m122.92,84.72s1.03-3.09,3.2-1.83.69,4.34,0,5.72,2.4-3.96,2.97-3.01,2.63.95,1.94,3.24-1.6,3.43-2.06,3.55,2.63-2.4,3.09-1.37.57,4-.8,4.8-6.06,2.86-7.77,1.26-3.32-1.94-3.77-3.66.69-7.32.69-7.32l2.52-1.37Z"/>
    </clipPath>
    <clipPath id="clippath-13">
      <path class="cls-25" d="m101.17,97.66s1.1,3.61,4.65,3.64,9.16-2.37,9.16-2.37c0,0-4.96,6.33-5.39,6.47s-7.22-1.38-7.33-2.02-1.1-5.73-1.1-5.73Z"/>
    </clipPath>
    <clipPath id="clippath-14">
      <path class="cls-25" d="m114,81.84s-1.06-.02.99,2.19,4.62,2.21,4.62,2.21l-1.28,2.61s-4.57-.02-4.6-1.04.27-5.97.27-5.97Z"/>
    </clipPath>
    <clipPath id="clippath-15">
      <path class="cls-25" d="m100.22,79.24s1.72,3.88,3.56,3.88,4.42-.53,4.42-.53l-1.03,3.66s-2.59-.35-4.18-1.25-2.77-5.76-2.77-5.76Z"/>
    </clipPath>
    <clipPath id="clippath-16">
      <path class="cls-25" d="m90.74,87.81s.43,2.52,3.02,2.31,4.96-1.27,4.96-1.27l-1.94,3.75-6.04-1.42v-3.37Z"/>
    </clipPath>
    <clipPath id="clippath-17">
      <path class="cls-25" d="m161.11,88.38c-1.22,1.29-2.29,3.95-.91,5.49.98,1.1,2.82,1.18,4.12.57,1.84-.86,2.66-3.15,2.06-4.92-.36-1.04-1.35-2.32-2.74-2.4-1.26-.07-2.16.89-2.52,1.26Z"/>
    </clipPath>
    <clipPath id="clippath-18">
      <path class="cls-25" d="m174.25,91.8c-.46.43-2.46,2.32-1.83,3.66.54,1.15,2.84,1.49,4.34.57.07-.04,1.58-1,1.6-2.74,0-1.07-.55-2.49-1.6-2.74-.94-.23-1.81.59-2.52,1.26Z"/>
    </clipPath>
    <clipPath id="clippath-19">
      <path class="cls-25" d="m179.63,101.41c-1.61.34-3.48,1.79-3.2,3.2.19.97,1.31,1.54,2.06,1.71,1.51.36,2.95-.55,3.66-1.6.12-.17,1.08-1.61.46-2.63-.7-1.14-2.77-.73-2.97-.69Z"/>
    </clipPath>
    <clipPath id="clippath-20">
      <path class="cls-25" d="m162.36,100.49c-2.9,2.03-5.21,6.77-3.32,9.37,1.32,1.82,4.05,1.73,4.34,1.71,3.92-.19,5.86-4.44,6.17-5.14.46-1.01,1.81-3.98.34-5.83-1.21-1.54-3.63-1.4-4.12-1.37-1.75.1-2.96.93-3.43,1.26Z"/>
    </clipPath>
    <clipPath id="clippath-21">
      <path id="feet-3" data-name="feet" class="cls-25" d="m115.24,118.91s6.43-19.22,6.65-29.4c.23-10.18.69-11.43-4-13.15s-5.26,1.6-6.29,4.12-.69,3.32-.69,3.32c0,0,.57-4.6-1.26-7.9s-5.83-2.96-7.66-2.04-4.92,3.43-4.57,5.83.69,4.92.69,4.92c0,0-2.19-3.31-4.7-3.14s-3.19-.86-5.36,3.03-.57,10.15,0,10.29,10.63,21.52,13.15,24.14,6.34,7.3,9.12,5.2,4.92-5.2,4.92-5.2Z"/>
    </clipPath>
    <clipPath id="clippath-22">
      <path id="feet-4" data-name="feet" class="cls-25" d="m158.71,85.29s-7.39,15.47-9.49,23.44-3.79,14.53-.91,15.92,4.15,2.79,8.21,1.13,27.34-17.85,27.8-19.11,2.29-4.23.8-6.4-2.97-2.74-5.26-1.83,3.09-4.34,1.14-8-6.17-3.32-7.55-2.29-4,3.77-4,3.77c0,0-.11-3.2-.46-4.92s-1.37-3.32-5.14-3.32-5.14,1.6-5.14,1.6Z"/>
    </clipPath>
  </defs>
  <g id="body">
    <g>
      <path class="cls-28" d="m188.49,99.31c-1.18-1.33-2.27-2.74-3.34-4.16-.46-.62-.92-1.24-1.38-1.86-.26-.35-.51-.69-.77-1.03-.11-.15-.48-.62-.16-.21-1.15-1.47-1.65-3.14-1.27-4.74-.14-.75-.12-1.5.08-2.25.1-.24.2-.48.3-.72,0-1.61-.1-4.85-.6-9.02-.7-5.81-7.32-10.35-6.37-10.87.95-.53,2.43-2.96,3.06-7.39.63-4.43-.95-6.55-2.74-10.98-.93-2.29-5.05-4.01-8.84-5.15,2.24,2.86.99,8.28-3.75,8.28-5.75,0-6.36-7.94-1.86-9.67-.73-.15-1.18-.22-1.18-.22,0,0-1.16-1.79-4.01-4.65-2.85-2.85-8.34-4.64-9.61-5.91s.21-3.17,1.37-4.54,2.74.63,4.75,2.32,5.07,4.12,5.6,5.7,13.72,8.97,13.72,8.97c1.06,1.48,6.65,2.53,8.55.32s2.11-4.01-2.01-4.65c-4.12-.63-10.24-10.24-12.03-12.88-1.79-2.64-3.48-6.44-3.59-6.76-.11-.32-4.22-7.92-8.66-10.45-4.43-2.53-6.76-.11-11.19.21-4.43.32-4.65-.95-5.81-1.27-1.16-.32-3.38-.53-5.49-.53s-4.12,4.12-5.28,5.28-5.07,7.81-5.7,11.08c-.63,3.27,0,8.55,0,8.55,0,0-1.79-.74-7.28,1.27-3.11,1.14-12.26,7.73-13.92,9.58-2.35,1.75-4.69,3.54-6.96,5.39-2.22,4.08-4.74,8.04-7.55,11.76.22,1.82.22,3.67,0,5.49l.56.38s1.58,3.08,2.85,8.04c.13.51.32.99.55,1.44.15-.01.31-.03.46-.04.29-.02.59-.04.89-.03.03,0,.06,0,.08,0,1.54-.31,3.02.09,4.15.98,1.07-.12,2.22.09,3.11.62,1.22.73,2.35,1.51,3.45,2.41,1.01.83,1.41,2.29,1.46,3.54.06,1.33-.59,2.58-1.46,3.54-.84.92-2.31,1.46-3.54,1.46-.69.03-1.33-.12-1.93-.43-.48-.16-.89-.42-1.27-.75-.57-.4-1.16-.77-1.76-1.13-.21-.12-.39-.27-.57-.42-.37.06-.74.1-1.11.13-.26.89-.61,1.73-1.04,2.69.36-.82.13-.28-.05.23.07.21.15.42.23.62.52,1.38.18,2.79-.6,3.93,0,.22,0,.44.01.66,0,0,0,0,0,0,.7,1.39.69,3.01.03,4.42,3.96,8.52,11.61,20.91,12.32,22.24.95,1.79,6.12,5.28,8.02,5.91,1.51.5,3.34-1.45,4.78-3.55-.47-.15-.87-.37-1.16-.68-1.66-1.83-.11-7.03,2.54-8.2.21-.09.24-.08,3.67-.56,2.69-.38,3.11-.45,3.67-.75.68-.37,1.78-1.2,2.54-3.3.05.17.15.53.24,1.03l.23-1.03s5,4.28,9.52,4.54c4.52.26,7.53.17,9.98-.59,2.45-.75,6.49-2.54,6.49-2.54l-.75,9.61-4,.39c.06,1.16.2,2.78.47,4.57.53,3.48,4.65,3.38,8.87,2.74,4.22-.63,15.1-9.18,15.1-9.18l1.79.21,1.08.45c1.86-1.13,3.76-2.73,5.06-3.61,2.77-1.87,5.64-3.49,8.48-5.25.36-.22.69-.46,1.04-.7.18-.49.33-1,.47-1.55.45-1.85.76-3.73,1.09-5.59-.81-.22-1.56-.62-2.12-1.24Z"/>
      <path class="cls-12" d="m151.93,108.46s-4.04,1.79-6.49,2.54c-2.45.76-5.46.85-9.98.59-4.52-.26-9.52-4.54-9.52-4.54l-.23,1.03c-.09-.5-.19-.86-.24-1.03-.76,2.1-1.86,2.93-2.54,3.3-.56.3-.98.37-3.67.75-3.43.48-3.46.47-3.67.56-2.65,1.17-4.2,6.37-2.54,8.2.28.31.69.53,1.16.68.14-.21.28-.41.41-.62.22-.34.42-.68.62-1.01,1.48-2.53,8.66-3.91,10.35-3.27,1.69.63,2.43,1.58,11.08,2.22,8.66.63,10.45-1.16,10.45-1.16,0,0,0,.68.06,1.77l4-.39.75-9.61Z"/>
    </g>
    <g class="cls-24">
      <path class="cls-12" d="m177.92,73.23s-.93,2.28-2.59,4.35-6.64,4.26-6.64,4.26l-13.28,2.19-4.24,1.36,1.79,4.73,22.37-6.09,6.24,3.27.92-12.36-4.58-1.71Z"/>
    </g>
    <g class="cls-15">
      <path class="cls-12" d="m146.57,23.81s3.86-13.75,6.4-13.37,8.19,9.89,10.08,13.37,12.99,10.43,12.99,10.43c0,0,10.92-3.32,8.38,3.01s-6.87,7.83-6.87,7.83l-20.53-4.89-10.45-9.13s-4.24.4-2.54-3.05,2.54-4.2,2.54-4.2Z"/>
    </g>
    <g class="cls-7">
      <path class="cls-12" d="m85.55,35.39s14.12,2.35,16.48,5.46,2.46,4.8,2.46,4.8l-3.61,5.27-22.11,9.22s3.58-20.37,5.18-22.56l1.6-2.19Z"/>
    </g>
  </g>
  <g id="cheeks">
    <path id="eye_socket" data-name="eye socket" class="cls-36" d="m142.82,62.22s-7.14-8.37-7.44-9.82-3.3-10.21,2.38-13.28,8.52-2.15,10.13-1,2.99,2.38,4.68,4.68,4.91,6.83,4.91,6.83l-14.66,12.59Z"/>
    <path id="eyelid" class="cls-9" d="m143.12,59.1s-7.98-8.82-7.06-13.22,1.46-5.67,4.76-6.65,6.98-.35,9.36,1.47,3.61,3.57,3.61,3.57c0,0-1.15-.35-4.3,3.64s-4.99,5.25-4.99,8.19.08,4.06.08,4.06l-1.46-1.05Z"/>
    <g class="cls-27">
      <path class="cls-18" d="m135.93,43.11c-.6,3.73,4.4,9.55,6.17,12.04,0,0,.52,1.23.84,1.14.39-.1-.34-2.26.76-4.42.19-.37.4-.65.84-1.22,1.01-1.32,1.95-2.16,3.05-3.12,2.78-2.44,2.7-2.82,3.73-3.28.76-.34,2.38-1.06,3.05-.46,1.85,1.67-6.01,11.61-9.83,15.32-.23.22-.69.65-1.37.76-2.8.44-6.5-4.96-7.47-9.91-.53-2.73.83-10.59.23-6.86Z"/>
    </g>
    <path id="cheeks-2" data-name="cheeks" class="cls-17" d="m135.99,62.22s3.91-2.38,5.91-1.84,2.3.88,2.3.88c0,0-2.3-6.94,3.38-12.55s13.74-10.28,14.51-10.67,3.99-.46,3.99-.46c0,0-1.77.08-3.38,1.77s-1.92,2.84-1.92,2.84c0,0,4.99-2.3,7.67-1.53s8.29,5.37,8.29,5.37l-4.3.15s4.99.61,6.75,2.76,1.3,1.92,1.3,1.92c0,0,.61-.54-2.53-1.3s3.45.92,4.3,3.91-.61.15-3.99-.38,2.07.61,2.61,4.68-4.45,7.9-4.45,7.9c0,0-4.53-2.3-6.98-.84s-6.37,2.61-8.52,4.84-4.68,5.45-5.37,4.76-19.57-11.59-19.57-11.59"/>
    <g class="cls-16">
      <path class="cls-20" d="m163.57,45.91l4.79,1.93s1.01-.84-.84,1.09-2.1,1.01-.59,2.6,2.9,1.85,1.7,3.36-1.45,3.19-2.96,4.28-.45,2.75-2.62,5.32-6.2,6.1-6.2,6.1l-4.96,1.89s2.61,7.04,7.65,4.51,25.61-9.21,25.61-14.02.07-15.18-3.11-17.9-12.85-7.92-14.11-7.83-5.96-.92-5.96-.58-3.04,5.38-3.04,5.38c0,0-3.17,3.3-2.67,3.04s3.78-1.86,5.79-1.61,4.17,1.34,4.17,1.34l-2.66,1.09Z"/>
    </g>
    <path class="cls-18" d="m137.6,66.25s-.19-.71,1.27-1.74,2.43-1.09,3.28-1.09,1.28,2.25,1.03,3.35.25,2.19-1.61,1.95-3.75-.06-3.99-.85,0-1.6,0-1.6Z"/>
  </g>
  <g id="Layer_10" data-name="Layer 10">
    <path class="cls-18" d="m92.8,37.52c-3.82-.68-8.41-.04-10.96,2.14-2.55,2.18-5.61,11.62-5.61,11.62l-3.95,20.6s8.66-12.05,10.07-15.6c1.4-3.55,7.39-8.55,7.39-8.55l13.25-7.18s-6.37-2.34-10.19-3.02Z"/>
    <g id="carrots">
      <path class="cls-6" d="m82.57,62.87c1.12.03,2.24.2,3.36.36.25.03.49.05.74.05.32,0,1.43-.21.32.02,2.55-.52,4.89.6,5.92,2.94l8.27-11.74-24.55-20.27-10.66,19.64,14.89,9.3c.55-.21,1.13-.33,1.72-.31Z"/>
      <g>
        <path class="cls-6" d="m82.57,62.87c1.12.03,2.24.2,3.36.36.25.03.49.05.74.05.32,0,1.43-.21.32.02,2.55-.52,4.89.6,5.92,2.94l8.27-11.74-24.55-20.27-10.66,19.64,14.89,9.3c.55-.21,1.13-.33,1.72-.31Z"/>
        <g class="cls-34">
          <path class="cls-21" d="m75.99,41.87s6.92,17.45,16.28,17.55-10.99,10.82-10.99,10.82c0,0-10.45-7.94-10.45-8.02s5.17-20.35,5.17-20.35Z"/>
        </g>
      </g>
      <path class="cls-30" d="m95.01,49.93l-3.63-4.84,1.82,5.52s-1.95-1.88-3.97-2.76c-2.02-.87-4.71,0-4.71,0,0,0,3.5.34,5.25,2.22s2.42,3.36,2.42,3.36c0,0,0,1.21-3.09-.81-3.09-2.02-4.57-3.18-4.57-3.18l2.69,4.35,3.09,1.79c-4.98-1.48-4.17,0-4.17,0l2.96,1.48s2.96,3.36-.81,1.21c-3.77-2.15-5.92-4.57-5.92-4.57l.94,2.42,3.5,2.87s3.36.59.67,0c-2.69-.59-6.05-1.39-6.05-1.39l3.63,2.29.67,2.96s-4.17.12-4.37-1.42.02,2.57.02,2.57l3.95.36s-.19,7.07,4.21,10.67,69.12,33.97,69.12,33.97c0,0,14.68,8.1,18.28,9.28,3.6,1.19,17.63,5.1,24.7,6.72,7.07,1.62,17.7,0,17.7,0,0,0,8.22,4.15,11.71,4.15s-3.9-2.93-3.9-2.93l-5.11-1.48s6.29-.79,7.64-.53c1.35.26,6.61,2.23,6.61,2.23,0,0,1.9-1.17-3.62-3.32-5.52-2.15-9.15-.54-9.15-.54l13.08-3.09-13.22,1.75-2.29-.13s-3.36-9.28-7.27-13.72c-3.9-4.44-18.05-13.88-18.05-13.88,0,0-80.44-42.37-80.98-42.5s-7.27-4.98-12.65-4.17c-5.38.81-7.13,3.09-7.13,3.09Z"/>
      <g class="cls-11">
        <path class="cls-5" d="m85.55,54.56s.58,8.64,12.35,14.99,81.21,40.67,87.79,43.48,14.81,8,22.59,7.36,12.98-5.41,12.98-5.41l22.07,3.24-8,18.82s-51.18-10.27-59.98-13.84-93.55-40.5-94.07-46.2.62-27.55.62-27.55l3.66,5.11Z"/>
      </g>
    </g>
    <path class="cls-28" d="m86.95,28.76c-3.3-1.63-4.45-.41-7.51,1.84-3.06,2.24-4.69,1.02-7.85,1.22-3.16.2-4.08,2.14-5.3,6.42-1.22,4.28-3.57,24.07-4.59,27.74-1.02,3.67-2.04,15.19-2.14,24.98-.1,9.79,3.67,6.33,5.81,6.69,2.14.37,7.44-13.22,10.1-22.09,2.65-8.87,7.04-28.65,7.24-29.88.2-1.22,3.37-6.22,4.69-6.32s9.48,3.06,9.48,3.06l9.08,2.66,5.61-4.6s-21.31-10.1-24.61-11.73Z"/>
    <g class="cls-13">
      <path class="cls-12" d="m86.4,31.66c-.99,2.15-1.67,4.02-2.13,5.44-.63,1.94-.93,3.26-1.07,4.69-.1,1.12-.32,3.41.32,3.63.96.32,2.45-4.55,5.23-4.69.99-.05,1.7.52,2.35.96,4.72,3.24,10.79,3.27,10.88,2.99.07-.24-4.15-1.53-9.81-4.8-1.47-.85-2.81-1.7-3.95-3.31-1.29-1.83-1.68-3.73-1.81-4.91Z"/>
    </g>
    <path class="cls-9" d="m132.78,5.22s-6.12,6.49-7.03,11.81c-.91,5.32-1.49,11.3-1.49,11.3,4.12-1.64,8.13-1.7,12.04-.3,0,0,.3-6.93,1.31-9.84,1-2.91,5.61-8.5,5.61-8.5l5.96-3.93s-6.58.45-8.82.18c-1.87-.23-7.57-.7-7.57-.7Z"/>
    <g class="cls-29">
      <path class="cls-18" d="m134.96,4.63s-3.31.35-5.56,8.45-3.23,10.31-3.24,12.46,9.08.49,9.08.49l1.83,1.55s-3.24,1.06-8.38,1.06-5.63,4.29-5.77-2.53,3.73-15.27,6.62-18.44,5.42-3.03,5.42-3.03Z"/>
    </g>
    <g class="cls-23">
      <path class="cls-12" d="m84.26,37.1s-8.2,29.13-11.98,34.77c-3.78,5.64-6.6,14.4-8.47,13.12l-1.88-1.28-3.38-7.03s-3.57,15.09,0,19.88,9.2,5.35,12.57,0c3.38-5.35,8.26-18.58,9.38-24.07l1.13-5.49,2.62-29.9Z"/>
    </g>
  </g>
  <g id="hands">
    <path class="cls-4" d="m122.92,84.72s1.03-3.09,3.2-1.83.69,4.34,0,5.72,2.4-3.96,2.97-3.01,2.63.95,1.94,3.24-1.6,3.43-2.06,3.55,2.63-2.4,3.09-1.37.57,4-.8,4.8-6.06,2.86-7.77,1.26-3.32-1.94-3.77-3.66.69-7.32.69-7.32l2.52-1.37Z"/>
    <path id="arm" class="cls-28" d="m153.33,76.11l7.37-6.76s6.75-4.44,9.67-4.75,7.21-.23,7.9,6.6.15,8.84-1.53,10.64-19.81,6.39-21.26,6.25-4.3.77-4.3.77l-1.53-9.44,3.68-3.3Z"/>
    <g class="cls-35">
      <path class="cls-12" d="m177.92,73.23s-.93,2.28-2.59,4.35-6.64,4.26-6.64,4.26l-13.28,2.19-4.24,1.36,1.79,4.73,22.37-6.09,6.24,3.27.92-12.36-4.58-1.71Z"/>
    </g>
    <path class="cls-4" d="m152.19,75.91l-2.4-2.86s-3.09-1.26-4.12,0,1.03,5.03,1.71,5.37-6.75-.34-6.75.91-.46,2.14.46,3.24,3.77,1.33,3.77,1.33c0,0-4-.46-3.66,1.14s1.14,3.32,2.74,3.2,3.2-.46,3.2-.46c0,0-4.46.8-3.32,1.83s3.2,2.17,5.14,1.14,4.8-2.06,5.03-2.4-1.03-6.4-1.14-8.57-.69-3.89-.69-3.89Z"/>
    <g class="cls-2">
      <path class="cls-20" d="m154.05,84.8s-2.04,2.13-4.01,2.66-5.75-.69-6.21-1.33-3.3-2.44-3.3-2.44c0,0,2.85,7.13,3.38,7.49s10.14-.82,10.14-.82v-5.56Z"/>
      <path class="cls-20" d="m144.89,82.59l-5.98-2.33s.61,2.45.98,2.33,3.78,2.11,4.47,1.45l.68-.66-.16-.78Z"/>
      <polygon class="cls-20" points="145.04 76.26 147.77 79.28 149.13 79.28 146.78 75.65 145.39 74.07 145.04 76.26"/>
    </g>
    <g class="cls-19">
      <path class="cls-20" d="m126.8,84.2s-2.5,6.77-1.25,5.92,1.89-3.28,1.89-3.28v-3.85l-.64,1.21Z"/>
      <path class="cls-20" d="m128,92.21s.69-.89,1.68-1.85c.79-.78,1.15-2.96,1.26-3.77.03-.19.04-.3.04-.3l2.25,4.67-1.74,7-10.06.55-3.56-7.33,2.88-5.28,2.34,4.22s3.72,1.96,4.91,2.09"/>
    </g>
  </g>
  <g id="toebeans">
    <path id="feet" class="cls-4" d="m115.24,118.91s6.43-19.22,6.65-29.4c.23-10.18.69-11.43-4-13.15s-5.26,1.6-6.29,4.12-.69,3.32-.69,3.32c0,0,.57-4.6-1.26-7.9s-5.83-2.96-7.66-2.04-4.92,3.43-4.57,5.83.69,4.92.69,4.92c0,0-2.19-3.31-4.7-3.14s-3.19-.86-5.36,3.03-.57,10.15,0,10.29,10.63,21.52,13.15,24.14,6.34,7.3,9.12,5.2,4.92-5.2,4.92-5.2Z"/>
    <path id="feet-2" data-name="feet" class="cls-4" d="m158.71,85.29s-7.39,15.47-9.49,23.44-3.79,14.53-.91,15.92,4.15,2.79,8.21,1.13,27.34-17.85,27.8-19.11,2.29-4.23.8-6.4-2.97-2.74-5.26-1.83,3.09-4.34,1.14-8-6.17-3.32-7.55-2.29-4,3.77-4,3.77c0,0-.11-3.2-.46-4.92s-1.37-3.32-5.14-3.32-5.14,1.6-5.14,1.6Z"/>
    <g id="left">
      <path class="cls-9" d="m102.34,99.92c.51,1.19,2.1,4.91,4.8,5.03,2.64.11,5.1-3.27,5.72-6.06,0-.03.02-.08.03-.14.41-1.95.38-5.51-1.86-7.29-2.62-2.09-7.46-1.06-9.15,1.83-1.37,2.35-.18,5.13.46,6.63Z"/>
      <path class="cls-9" d="m114.12,84.83c.27,1.22,1.24,2.86,2.63,2.97,1.72.14,3.28-2.14,3.32-4.12,0-.27,0-2.44-1.6-3.2-1.31-.62-2.85.09-3.66,1.03-1.14,1.32-.75,3.01-.69,3.32Z"/>
      <path class="cls-9" d="m100.97,81.29c.49,2.25,3.16,4.31,5.03,3.54,1.41-.58,1.85-2.56,1.83-3.77,0-.38-.06-2.88-2.06-3.77-1.54-.69-3.45-.06-4.34,1.26-.74,1.09-.55,2.32-.46,2.74Z"/>
      <path class="cls-9" d="m91.37,88.49c-.05,1.29.61,2.49,1.71,3.09,1.28.7,2.89.43,3.89-.57,1.2-1.2,1.1-3.01.46-4.12-.67-1.15-1.88-1.47-3.2-1.83-.85-.23-1.42-.38-1.94-.11-.86.44-1.22,1.85-.91,3.54Z"/>
    </g>
    <g id="left-2" data-name="left">
      <g class="cls-8">
        <path class="cls-18" d="m102.34,99.92c.51,1.19,2.1,4.91,4.8,5.03,2.64.11,5.1-3.27,5.72-6.06,0-.03.02-.08.03-.14.41-1.95.38-5.51-1.86-7.29-2.62-2.09-7.46-1.06-9.15,1.83-1.37,2.35-.18,5.13.46,6.63Z"/>
      </g>
      <g class="cls-32">
        <path class="cls-18" d="m114.12,84.83c.27,1.22,1.24,2.86,2.63,2.97,1.72.14,3.28-2.14,3.32-4.12,0-.27,0-2.44-1.6-3.2-1.31-.62-2.85.09-3.66,1.03-1.14,1.32-.75,3.01-.69,3.32Z"/>
      </g>
      <g class="cls-10">
        <path class="cls-18" d="m100.97,81.29c.49,2.25,3.16,4.31,5.03,3.54,1.41-.58,1.85-2.56,1.83-3.77,0-.38-.06-2.88-2.06-3.77-1.54-.69-3.45-.06-4.34,1.26-.74,1.09-.55,2.32-.46,2.74Z"/>
      </g>
      <g class="cls-3">
        <path class="cls-18" d="m91.37,88.49c-.05,1.29.61,2.49,1.71,3.09,1.28.7,2.89.43,3.89-.57,1.2-1.2,1.1-3.01.46-4.12-.67-1.15-1.88-1.47-3.2-1.83-.85-.23-1.42-.38-1.94-.11-.86.44-1.22,1.85-.91,3.54Z"/>
      </g>
    </g>
    <g id="right">
      <path class="cls-9" d="m161.11,88.38c-1.22,1.29-2.29,3.95-.91,5.49.98,1.1,2.82,1.18,4.12.57,1.84-.86,2.66-3.15,2.06-4.92-.36-1.04-1.35-2.32-2.74-2.4-1.26-.07-2.16.89-2.52,1.26Z"/>
      <path class="cls-9" d="m174.25,91.8c-.46.43-2.46,2.32-1.83,3.66.54,1.15,2.84,1.49,4.34.57.07-.04,1.58-1,1.6-2.74,0-1.07-.55-2.49-1.6-2.74-.94-.23-1.81.59-2.52,1.26Z"/>
      <path class="cls-9" d="m179.63,101.41c-1.61.34-3.48,1.79-3.2,3.2.19.97,1.31,1.54,2.06,1.71,1.51.36,2.95-.55,3.66-1.6.12-.17,1.08-1.61.46-2.63-.7-1.14-2.77-.73-2.97-.69Z"/>
      <path class="cls-9" d="m162.36,100.49c-2.9,2.03-5.21,6.77-3.32,9.37,1.32,1.82,4.05,1.73,4.34,1.71,3.92-.19,5.86-4.44,6.17-5.14.46-1.01,1.81-3.98.34-5.83-1.21-1.54-3.63-1.4-4.12-1.37-1.75.1-2.96.93-3.43,1.26Z"/>
    </g>
    <g id="dark-R-toebeans">
      <g class="cls-33">
        <path class="cls-18" d="m166.56,88.38s.5,4.11-2.1,4.44-6.11,0-6.11,0c0,0,.74,4.2,4.12,3.02s5.32-1.72,5.22-3.13-1.13-4.33-1.13-4.33Z"/>
      </g>
      <g class="cls-31">
        <path class="cls-18" d="m171.36,96.05s4.15-.11,5.04-1.24,1.93-2.9,2.17-3.63,1.04,2.36,1.04,2.36l-2.1,4.43-6.14-1.4v-.51Z"/>
      </g>
      <g class="cls-26">
        <path class="cls-18" d="m175.48,103.85s2.45,1.81,4.12,1.1,4.05-3.19,4.05-3.19l-.84,3.64-5.41,1.75-1.91-3.3Z"/>
      </g>
      <g class="cls-1">
        <path class="cls-18" d="m157.47,104.96s.74,3.17,3.22,3.28,6.79-.69,7.55-1.64,3.13-3.75,3.13-3.75c0,0-2.48,7.76-2.8,7.76s-8.87,2.05-9.01,1.62"/>
      </g>
    </g>
    <g class="cls-14">
      <path class="cls-20" d="m86.95,82.59s-1.28,2.9,3.68,12.23,13.47,23.34,18.32,21.29,11.11-9.16,11.11-9.16l-5.61,16.6-9.96,2.99s-10.19-8.05-11.05-11.07-7.57-19.37-7.88-21.92,1.4-10.95,1.4-10.95Z"/>
      <path class="cls-20" d="m113.24,77l-1.69,10.8s-2.6-5.88-2.39-8.46-.01-3.99-.01-3.99l4.09,1.65Z"/>
      <path class="cls-20" d="m98.6,78.48s1.51,9.65,0,7.26-4.03-3.44-4.03-3.44l3.32-7.79.71,3.97Z"/>
    </g>
    <g class="cls-22">
      <path class="cls-20" d="m148.08,106.4s-.75,8.33,1.57,11.82,5.22,4.89,7.27,4.02,5.61-3.02,7.55-4.1,12.82-8.62,12.82-8.62c0,0,9.38-4.74,9.49-6.36s-1.09,5.17-1.09,5.17l-24.67,18.19s-14.29,2.28-15.12-.41,2.19-19.72,2.19-19.72Z"/>
      <path class="cls-20" d="m181.77,90.12s-1.49,5.54-3.2,7.84,1.04,1.76,1.04,1.76l3.63-1.32-1.47-8.28Z"/>
      <path class="cls-20" d="m169.11,84.8s-.34,8.88-.77,9.53,2.8-.79,2.8-.79l5.71-6.86-7.75-1.87Z"/>
    </g>
  </g>
</svg>